<?xml version="1.0" encoding="UTF-8" standalone="no"?>
<!DOCTYPE svg PUBLIC "-//W3C//DTD SVG 1.1//EN"
 "http://www.w3.org/Graphics/SVG/1.1/DTD/svg11.dtd">
<!-- Generated by graphviz version 2.44.1 (20200629.0846)
 -->
<!-- Title: duration Pages: 1 -->
<svg width="3236pt" height="304pt"
 viewBox="0.00 0.00 3236.20 304.00" xmlns="http://www.w3.org/2000/svg" xmlns:xlink="http://www.w3.org/1999/xlink">
<g id="graph0" class="graph" transform="scale(1 1) rotate(0) translate(4 300)">
<title>duration</title>
<polygon fill="white" stroke="transparent" points="-4,4 -4,-300 3232.2,-300 3232.2,4 -4,4"/>
<!-- ENTRY -->
<g id="node1" class="node">
<title>ENTRY</title>
<ellipse fill="black" stroke="black" cx="1.8" cy="-135" rx="1.8" ry="1.8"/>
</g>
<!-- 1 -->
<g id="node17" class="node">
<title>1</title>
<ellipse fill="none" stroke="black" cx="91.1" cy="-116" rx="23.5" ry="23.5"/>
<text text-anchor="middle" x="91.1" y="-112.3" font-family="Times,serif" font-size="14.00">1</text>
</g>
<!-- ENTRY&#45;&gt;1 -->
<g id="edge19" class="edge">
<title>ENTRY&#45;&gt;1</title>
<path fill="none" stroke="black" d="M3.78,-134.79C9.17,-133.61 35.8,-127.82 58.07,-122.97"/>
<polygon fill="black" stroke="black" points="58.87,-126.38 67.9,-120.83 57.39,-119.54 58.87,-126.38"/>
<text text-anchor="middle" x="35.6" y="-134.8" font-family="Times,serif" font-size="14.00">IN</text>
</g>
<!-- en_1 -->
<g id="node2" class="node">
<title>en_1</title>
<ellipse fill="black" stroke="black" cx="1.8" cy="-97" rx="1.8" ry="1.8"/>
</g>
<!-- en_1&#45;&gt;1 -->
<g id="edge20" class="edge">
<title>en_1&#45;&gt;1</title>
<path fill="none" stroke="black" d="M3.96,-97.2C9.24,-98.12 31.5,-102.03 49.6,-106 52.29,-106.59 55.08,-107.23 57.87,-107.88"/>
<polygon fill="black" stroke="black" points="57.33,-111.35 67.87,-110.29 58.96,-104.54 57.33,-111.35"/>
<text text-anchor="middle" x="35.6" y="-109.8" font-family="Times,serif" font-size="14.00">main</text>
</g>
<!-- eof_4 -->
<g id="node3" class="node">
<title>eof_4</title>
<ellipse fill="black" stroke="black" cx="884.1" cy="-268" rx="1.8" ry="1.8"/>
</g>
<!-- eof_5 -->
<g id="node4" class="node">
<title>eof_5</title>
<ellipse fill="black" stroke="black" cx="1743.1" cy="-136" rx="1.8" ry="1.8"/>
</g>
<!-- eof_6 -->
<g id="node5" class="node">
<title>eof_6</title>
<ellipse fill="black" stroke="black" cx="2866.1" cy="-190" rx="1.8" ry="1.8"/>
</g>
<!-- eof_7 -->
<g id="node6" class="node">
<title>eof_7</title>
<ellipse fill="black" stroke="black" cx="3059.1" cy="-166" rx="1.8" ry="1.8"/>
</g>
<!-- eof_8 -->
<g id="node7" class="node">
<title>eof_8</title>
<ellipse fill="black" stroke="black" cx="3226.4" cy="-119" rx="1.8" ry="1.8"/>
</g>
<!-- eof_9 -->
<g id="node8" class="node">
<title>eof_9</title>
<ellipse fill="black" stroke="black" cx="2460.6" cy="-109" rx="1.8" ry="1.8"/>
</g>
<!-- eof_10 -->
<g id="node9" class="node">
<title>eof_10</title>
<ellipse fill="black" stroke="black" cx="2673.1" cy="-50" rx="1.8" ry="1.8"/>
</g>
<!-- 4 -->
<g id="node10" class="node">
<title>4</title>
<ellipse fill="none" stroke="black" cx="610.1" cy="-116" rx="23.5" ry="23.5"/>
<ellipse fill="none" stroke="black" cx="610.1" cy="-116" rx="27.5" ry="27.5"/>
<text text-anchor="middle" x="610.1" y="-112.3" font-family="Times,serif" font-size="14.00">4</text>
</g>
<!-- 4&#45;&gt;eof_4 -->
<g id="edge21" class="edge">
<title>4&#45;&gt;eof_4</title>
<path fill="none" stroke="black" d="M612.19,-143.53C614.99,-173.79 624.44,-221.38 655.6,-246 722.37,-298.76 836.92,-278.56 872.34,-270.62"/>
<polygon fill="black" stroke="black" points="873.25,-274 882.15,-268.26 871.61,-267.2 873.25,-274"/>
<text text-anchor="middle" x="749.1" y="-284.8" font-family="Times,serif" font-size="14.00">EOF / set_dur_num1, set_dur_abs</text>
</g>
<!-- 4&#45;&gt;4 -->
<g id="edge7" class="edge">
<title>4&#45;&gt;4</title>
<path fill="none" stroke="black" d="M588.17,-132.8C578.8,-146.84 586.11,-161.5 610.1,-161.5 628.65,-161.5 637.23,-152.73 635.83,-142.26"/>
<polygon fill="black" stroke="black" points="639,-140.77 632.03,-132.8 632.51,-143.38 639,-140.77"/>
<text text-anchor="middle" x="610.1" y="-165.3" font-family="Times,serif" font-size="14.00">&#39;0&#39;..&#39;9&#39; / add_dur_num_digit, add_dur_den_digit</text>
</g>
<!-- 6 -->
<g id="node12" class="node">
<title>6</title>
<ellipse fill="none" stroke="black" cx="2673.1" cy="-169" rx="23.5" ry="23.5"/>
<ellipse fill="none" stroke="black" cx="2673.1" cy="-169" rx="27.5" ry="27.5"/>
<text text-anchor="middle" x="2673.1" y="-165.3" font-family="Times,serif" font-size="14.00">6</text>
</g>
<!-- 4&#45;&gt;6 -->
<g id="edge5" class="edge">
<title>4&#45;&gt;6</title>
<path fill="none" stroke="black" d="M632.27,-132.55C676.3,-165.24 782.07,-235 883.1,-235 883.1,-235 883.1,-235 2461.6,-235 2527.02,-235 2598.85,-205.62 2639.41,-186.06"/>
<polygon fill="black" stroke="black" points="2641.12,-189.12 2648.55,-181.57 2638.03,-182.84 2641.12,-189.12"/>
<text text-anchor="middle" x="1743.1" y="-238.8" font-family="Times,serif" font-size="14.00">&#39;.&#39; / set_dur_num1, note_add_dot</text>
</g>
<!-- 10 -->
<g id="node16" class="node">
<title>10</title>
<ellipse fill="none" stroke="black" cx="2460.6" cy="-50" rx="23.5" ry="23.5"/>
<ellipse fill="none" stroke="black" cx="2460.6" cy="-50" rx="27.5" ry="27.5"/>
<text text-anchor="middle" x="2460.6" y="-46.3" font-family="Times,serif" font-size="14.00">10</text>
</g>
<!-- 4&#45;&gt;10 -->
<g id="edge8" class="edge">
<title>4&#45;&gt;10</title>
<path fill="none" stroke="black" d="M631.39,-97.78C638.67,-91.87 647.17,-85.65 655.6,-81 749.57,-29.14 775.77,0 883.1,0 883.1,0 883.1,0 2187.1,0 2273.45,0 2372.71,-24.59 2424.3,-39.28"/>
<polygon fill="black" stroke="black" points="2423.38,-42.66 2433.96,-42.08 2425.33,-35.94 2423.38,-42.66"/>
<text text-anchor="middle" x="1542.1" y="-3.8" font-family="Times,serif" font-size="14.00">&#39;_&#39; / set_dur_num1</text>
</g>
<!-- 2 -->
<g id="node18" class="node">
<title>2</title>
<ellipse fill="none" stroke="black" cx="884.1" cy="-116" rx="23.5" ry="23.5"/>
<text text-anchor="middle" x="884.1" y="-112.3" font-family="Times,serif" font-size="14.00">2</text>
</g>
<!-- 4&#45;&gt;2 -->
<g id="edge4" class="edge">
<title>4&#45;&gt;2</title>
<path fill="none" stroke="black" d="M637.68,-116C687.68,-116 795.62,-116 850.15,-116"/>
<polygon fill="black" stroke="black" points="850.31,-119.5 860.31,-116 850.31,-112.5 850.31,-119.5"/>
<text text-anchor="middle" x="749.1" y="-119.8" font-family="Times,serif" font-size="14.00">&#39;*&#39; / set_dur_repeats</text>
</g>
<!-- 3 -->
<g id="node19" class="node">
<title>3</title>
<ellipse fill="none" stroke="black" cx="1743.1" cy="-93" rx="23.5" ry="23.5"/>
<text text-anchor="middle" x="1743.1" y="-89.3" font-family="Times,serif" font-size="14.00">3</text>
</g>
<!-- 4&#45;&gt;3 -->
<g id="edge6" class="edge">
<title>4&#45;&gt;3</title>
<path fill="none" stroke="black" d="M637.58,-111.4C683.02,-103.75 778.87,-88.7 860.6,-83 1113.33,-65.37 1177.28,-75.91 1430.6,-79 1521.73,-80.11 1544.6,-79.05 1635.6,-84 1660.48,-85.35 1688.57,-87.76 1709.65,-89.75"/>
<polygon fill="black" stroke="black" points="1709.4,-93.24 1719.69,-90.71 1710.07,-86.27 1709.4,-93.24"/>
<text text-anchor="middle" x="1141.6" y="-82.8" font-family="Times,serif" font-size="14.00">&#39;/&#39;</text>
</g>
<!-- 5 -->
<g id="node11" class="node">
<title>5</title>
<ellipse fill="none" stroke="black" cx="1403.1" cy="-116" rx="23.5" ry="23.5"/>
<ellipse fill="none" stroke="black" cx="1403.1" cy="-116" rx="27.5" ry="27.5"/>
<text text-anchor="middle" x="1403.1" y="-112.3" font-family="Times,serif" font-size="14.00">5</text>
</g>
<!-- 5&#45;&gt;eof_5 -->
<g id="edge22" class="edge">
<title>5&#45;&gt;eof_5</title>
<path fill="none" stroke="black" d="M1430.62,-117.57C1499.86,-121.67 1683.97,-132.56 1731.03,-135.34"/>
<polygon fill="black" stroke="black" points="1730.87,-138.84 1741.06,-135.94 1731.29,-131.85 1730.87,-138.84"/>
<text text-anchor="middle" x="1542.1" y="-133.8" font-family="Times,serif" font-size="14.00">EOF / set_dur_num1, set_dur_abs</text>
</g>
<!-- 5&#45;&gt;5 -->
<g id="edge11" class="edge">
<title>5&#45;&gt;5</title>
<path fill="none" stroke="black" d="M1381.17,-132.8C1371.8,-146.84 1379.11,-161.5 1403.1,-161.5 1421.65,-161.5 1430.23,-152.73 1428.83,-142.26"/>
<polygon fill="black" stroke="black" points="1432,-140.77 1425.03,-132.8 1425.51,-143.38 1432,-140.77"/>
<text text-anchor="middle" x="1403.1" y="-165.3" font-family="Times,serif" font-size="14.00">&#39;0&#39;..&#39;9&#39; / add_dur_num_digit, add_dur_den_digit</text>
</g>
<!-- 5&#45;&gt;6 -->
<g id="edge9" class="edge">
<title>5&#45;&gt;6</title>
<path fill="none" stroke="black" d="M1423.85,-134.68C1431.08,-140.37 1439.69,-145.93 1448.6,-149 1651.4,-218.92 2199.13,-169.31 2413.6,-174 2508.69,-176.08 2532.77,-183.41 2627.6,-176 2630.29,-175.79 2633.05,-175.51 2635.83,-175.18"/>
<polygon fill="black" stroke="black" points="2636.39,-178.64 2645.83,-173.83 2635.45,-171.7 2636.39,-178.64"/>
<text text-anchor="middle" x="2186.1" y="-184.8" font-family="Times,serif" font-size="14.00">&#39;.&#39; / set_dur_num1, note_add_dot</text>
</g>
<!-- 5&#45;&gt;10 -->
<g id="edge12" class="edge">
<title>5&#45;&gt;10</title>
<path fill="none" stroke="black" d="M1424.54,-98C1431.7,-92.63 1440.08,-87.3 1448.6,-84 1534.13,-50.83 1562.06,-65.91 1653.6,-60 1949.54,-40.89 2307.83,-46.57 2422.45,-49.09"/>
<polygon fill="black" stroke="black" points="2422.7,-52.59 2432.77,-49.32 2422.86,-45.6 2422.7,-52.59"/>
<text text-anchor="middle" x="1964.6" y="-54.8" font-family="Times,serif" font-size="14.00">&#39;_&#39; / set_dur_num1</text>
</g>
<!-- 5&#45;&gt;3 -->
<g id="edge10" class="edge">
<title>5&#45;&gt;3</title>
<path fill="none" stroke="black" d="M1428.66,-105.58C1435.04,-103.32 1441.98,-101.24 1448.6,-100 1541.84,-82.6 1654.62,-86.8 1709.25,-90.39"/>
<polygon fill="black" stroke="black" points="1709.17,-93.89 1719.38,-91.09 1709.65,-86.91 1709.17,-93.89"/>
<text text-anchor="middle" x="1542.1" y="-103.8" font-family="Times,serif" font-size="14.00">&#39;/&#39;</text>
</g>
<!-- 6&#45;&gt;eof_6 -->
<g id="edge23" class="edge">
<title>6&#45;&gt;eof_6</title>
<path fill="none" stroke="black" d="M2700.66,-171.92C2742.94,-176.57 2823.83,-185.46 2853.67,-188.74"/>
<polygon fill="black" stroke="black" points="2853.51,-192.25 2863.83,-189.86 2854.27,-185.29 2853.51,-192.25"/>
<text text-anchor="middle" x="2769.6" y="-187.8" font-family="Times,serif" font-size="14.00">EOF / set_dur_abs</text>
</g>
<!-- 7 -->
<g id="node13" class="node">
<title>7</title>
<ellipse fill="none" stroke="black" cx="2866.1" cy="-143" rx="23.5" ry="23.5"/>
<ellipse fill="none" stroke="black" cx="2866.1" cy="-143" rx="27.5" ry="27.5"/>
<text text-anchor="middle" x="2866.1" y="-139.3" font-family="Times,serif" font-size="14.00">7</text>
</g>
<!-- 6&#45;&gt;7 -->
<g id="edge13" class="edge">
<title>6&#45;&gt;7</title>
<path fill="none" stroke="black" d="M2699.26,-160.01C2705.51,-158.08 2712.24,-156.24 2718.6,-155 2755.4,-147.8 2798.23,-144.91 2828.03,-143.76"/>
<polygon fill="black" stroke="black" points="2828.51,-147.24 2838.39,-143.41 2828.28,-140.25 2828.51,-147.24"/>
<text text-anchor="middle" x="2769.6" y="-158.8" font-family="Times,serif" font-size="14.00">&#39;.&#39; / note_add_dot</text>
</g>
<!-- 7&#45;&gt;eof_7 -->
<g id="edge24" class="edge">
<title>7&#45;&gt;eof_7</title>
<path fill="none" stroke="black" d="M2893.66,-146.2C2935.94,-151.29 3016.83,-161.03 3046.67,-164.62"/>
<polygon fill="black" stroke="black" points="3046.48,-168.13 3056.83,-165.85 3047.32,-161.18 3046.48,-168.13"/>
<text text-anchor="middle" x="2962.6" y="-163.8" font-family="Times,serif" font-size="14.00">EOF / set_dur_abs</text>
</g>
<!-- 8 -->
<g id="node14" class="node">
<title>8</title>
<ellipse fill="none" stroke="black" cx="3059.1" cy="-119" rx="23.5" ry="23.5"/>
<ellipse fill="none" stroke="black" cx="3059.1" cy="-119" rx="27.5" ry="27.5"/>
<text text-anchor="middle" x="3059.1" y="-115.3" font-family="Times,serif" font-size="14.00">8</text>
</g>
<!-- 7&#45;&gt;8 -->
<g id="edge14" class="edge">
<title>7&#45;&gt;8</title>
<path fill="none" stroke="black" d="M2892.77,-134.51C2898.88,-132.77 2905.42,-131.12 2911.6,-130 2948.48,-123.31 2991.29,-120.67 3021.07,-119.64"/>
<polygon fill="black" stroke="black" points="3021.53,-123.13 3031.42,-119.33 3021.32,-116.13 3021.53,-123.13"/>
<text text-anchor="middle" x="2962.6" y="-133.8" font-family="Times,serif" font-size="14.00">&#39;.&#39; / note_add_dot</text>
</g>
<!-- 8&#45;&gt;eof_8 -->
<g id="edge25" class="edge">
<title>8&#45;&gt;eof_8</title>
<path fill="none" stroke="black" d="M3086.66,-119C3123.45,-119 3188.31,-119 3214.24,-119"/>
<polygon fill="black" stroke="black" points="3214.36,-122.5 3224.36,-119 3214.36,-115.5 3214.36,-122.5"/>
<text text-anchor="middle" x="3155.6" y="-122.8" font-family="Times,serif" font-size="14.00">EOF / set_dur_abs</text>
</g>
<!-- 9 -->
<g id="node15" class="node">
<title>9</title>
<ellipse fill="none" stroke="black" cx="2186.1" cy="-94" rx="23.5" ry="23.5"/>
<ellipse fill="none" stroke="black" cx="2186.1" cy="-94" rx="27.5" ry="27.5"/>
<text text-anchor="middle" x="2186.1" y="-90.3" font-family="Times,serif" font-size="14.00">9</text>
</g>
<!-- 9&#45;&gt;eof_9 -->
<g id="edge26" class="edge">
<title>9&#45;&gt;eof_9</title>
<path fill="none" stroke="black" d="M2213.72,-95.47C2271.93,-98.67 2408.49,-106.19 2448.44,-108.39"/>
<polygon fill="black" stroke="black" points="2448.28,-111.88 2458.46,-108.94 2448.67,-104.89 2448.28,-111.88"/>
<text text-anchor="middle" x="2344.6" y="-109.8" font-family="Times,serif" font-size="14.00">EOF / set_dur_abs</text>
</g>
<!-- 9&#45;&gt;6 -->
<g id="edge15" class="edge">
<title>9&#45;&gt;6</title>
<path fill="none" stroke="black" d="M2212.62,-102.74C2234.01,-109.75 2265.48,-119.31 2293.6,-125 2417.31,-150.01 2566.86,-162.18 2635.02,-166.76"/>
<polygon fill="black" stroke="black" points="2635.03,-170.27 2645.24,-167.43 2635.49,-163.28 2635.03,-170.27"/>
<text text-anchor="middle" x="2460.6" y="-158.8" font-family="Times,serif" font-size="14.00">&#39;.&#39; / note_add_dot</text>
</g>
<!-- 9&#45;&gt;9 -->
<g id="edge16" class="edge">
<title>9&#45;&gt;9</title>
<path fill="none" stroke="black" d="M2162.56,-108.91C2149.55,-123.49 2157.4,-139.5 2186.1,-139.5 2209.19,-139.5 2218.79,-129.13 2214.88,-117.49"/>
<polygon fill="black" stroke="black" points="2217.84,-115.63 2209.64,-108.91 2211.86,-119.27 2217.84,-115.63"/>
<text text-anchor="middle" x="2186.1" y="-143.3" font-family="Times,serif" font-size="14.00">&#39;0&#39;..&#39;9&#39; / add_dur_den_digit</text>
</g>
<!-- 9&#45;&gt;10 -->
<g id="edge17" class="edge">
<title>9&#45;&gt;10</title>
<path fill="none" stroke="black" d="M2213.72,-89.7C2262.79,-81.78 2367.54,-64.86 2423.16,-55.88"/>
<polygon fill="black" stroke="black" points="2423.95,-59.3 2433.27,-54.25 2422.84,-52.39 2423.95,-59.3"/>
<text text-anchor="middle" x="2344.6" y="-79.8" font-family="Times,serif" font-size="14.00">&#39;_&#39;</text>
</g>
<!-- 10&#45;&gt;eof_10 -->
<g id="edge27" class="edge">
<title>10&#45;&gt;eof_10</title>
<path fill="none" stroke="black" d="M2488.26,-50C2534.87,-50 2629.24,-50 2661.22,-50"/>
<polygon fill="black" stroke="black" points="2661.28,-53.5 2671.28,-50 2661.28,-46.5 2661.28,-53.5"/>
<text text-anchor="middle" x="2576.6" y="-53.8" font-family="Times,serif" font-size="14.00">EOF / set_dur_abs</text>
</g>
<!-- 10&#45;&gt;6 -->
<g id="edge18" class="edge">
<title>10&#45;&gt;6</title>
<path fill="none" stroke="black" d="M2486.76,-58.69C2527.09,-72.89 2604.05,-101.15 2627.6,-118 2635.67,-123.77 2643.26,-131.29 2649.81,-138.77"/>
<polygon fill="black" stroke="black" points="2647.39,-141.34 2656.47,-146.79 2652.77,-136.86 2647.39,-141.34"/>
<text text-anchor="middle" x="2576.6" y="-121.8" font-family="Times,serif" font-size="14.00">&#39;.&#39; / note_add_dot</text>
</g>
<!-- 1&#45;&gt;4 -->
<g id="edge1" class="edge">
<title>1&#45;&gt;4</title>
<path fill="none" stroke="black" d="M114.65,-116C195.56,-116 471.82,-116 572.24,-116"/>
<polygon fill="black" stroke="black" points="572.49,-119.5 582.49,-116 572.49,-112.5 572.49,-119.5"/>
<text text-anchor="middle" x="348.6" y="-119.8" font-family="Times,serif" font-size="14.00">&#39;1&#39;..&#39;9&#39; / reset_dur_num, add_dur_num_digit, reset_dur_den, add_dur_den_digit</text>
</g>
<!-- 2&#45;&gt;5 -->
<g id="edge2" class="edge">
<title>2&#45;&gt;5</title>
<path fill="none" stroke="black" d="M907.65,-116C988.56,-116 1264.82,-116 1365.24,-116"/>
<polygon fill="black" stroke="black" points="1365.49,-119.5 1375.49,-116 1365.49,-112.5 1365.49,-119.5"/>
<text text-anchor="middle" x="1141.6" y="-119.8" font-family="Times,serif" font-size="14.00">&#39;1&#39;..&#39;9&#39; / reset_dur_num, add_dur_num_digit, reset_dur_den, add_dur_den_digit</text>
</g>
<!-- 3&#45;&gt;9 -->
<g id="edge3" class="edge">
<title>3&#45;&gt;9</title>
<path fill="none" stroke="black" d="M1766.88,-93.05C1838.57,-93.21 2060.03,-93.72 2148.26,-93.92"/>
<polygon fill="black" stroke="black" points="2148.34,-97.42 2158.35,-93.94 2148.35,-90.42 2148.34,-97.42"/>
<text text-anchor="middle" x="1964.6" y="-97.8" font-family="Times,serif" font-size="14.00">&#39;1&#39;..&#39;9&#39; / reset_dur_den, add_dur_den_digit</text>
</g>
</g>
</svg>
