<?xml version="1.0"?>
<svg xmlns="http://www.w3.org/2000/svg" xmlns:xlink="http://www.w3.org/1999/xlink" viewBox="0 0 346.700000 252.000000" width="173.350000mm" height="126.000000mm" version="1.1">
<defs>
   <filter id="filter" filterRes="18" x="0" y="0">
     <feGaussianBlur in="SourceGraphic" stdDeviation="1.55" result="blur"/>
     <feOffset in="blur" dx="3" dy="3"/>
   </filter>
</defs>
<a xlink:href="a1d-0x7f9f3c054dc0.svg">
<rect x="1.000000" y="1.000000" width="345.700000" height="251.000000" rx="0.1" ry="0.1" style="stroke:none;fill:#aaaaaa;;filter:url(#filter);"/>
<rect x="0.000000" y="0.000000" width="345.700000" height="251.000000" rx="0" ry="0" style="stroke:none;fill:#ffffff;"/>
</a>
<text x="10.000000" y="7.000000" font-family="Arial" font-size="7"></text>
<rect x="138.350000" y="25.000000" width="24.000000" height="24.000000" rx="0.1" ry="0.1" style="stroke:none;fill:#aaaaaa;;filter:url(#filter);"/>
<rect x="137.350000" y="24.000000" width="24.000000" height="24.000000" rx="0" ry="0" style="stroke:none;fill:#f44800;"/>
<text x="149.350000" y="38.000000" font-family="Arial" font-size="7" text-anchor="middle" fill="#FFFFFF">1</text>
<circle cx="139.350000" cy="26.000000" r="1"/>
<rect x="42.350000" y="57.000000" width="24.000000" height="24.000000" rx="0.1" ry="0.1" style="stroke:none;fill:#aaaaaa;;filter:url(#filter);"/>
<rect x="41.350000" y="56.000000" width="24.000000" height="24.000000" rx="0" ry="0" style="stroke:none;fill:#f44800;"/>
<text x="53.350000" y="70.000000" font-family="Arial" font-size="7" text-anchor="middle" fill="#FFFFFF">2</text>
<circle cx="43.350000" cy="58.000000" r="1"/>
<rect x="35.000000" y="99.000000" width="38.700000" height="24.000000" rx="0.1" ry="0.1" style="stroke:none;fill:#aaaaaa;;filter:url(#filter);"/>
<rect x="34.000000" y="98.000000" width="38.700000" height="24.000000" rx="0" ry="0" style="stroke:none;fill:#f44800;"/>
<text x="53.350000" y="112.000000" font-family="Arial" font-size="7" text-anchor="middle" fill="#FFFFFF">3.14159</text>
<circle cx="36.000000" cy="100.000000" r="1"/>
<line x1="25.000000" y1="89.000000" x2="25.000000" y2="131.000000"  style="stroke: black; stroke-linecap:round; stroke-width:0.25; stroke-dasharray:3,3;"/>
<line x1="25.000000" y1="131.000000" x2="81.700000" y2="131.000000"  style="stroke: black; stroke-linecap:round; stroke-width:0.25; stroke-dasharray:3,3;"/>
<line x1="81.700000" y1="131.000000" x2="81.700000" y2="89.000000"  style="stroke: black; stroke-linecap:round; stroke-width:0.25; stroke-dasharray:3,3;"/>
<line x1="25.000000" y1="89.000000" x2="30.000000" y2="89.000000"  style="stroke: black; stroke-linecap:round; stroke-width:0.25; stroke-dasharray:3,3;"/>
<line x1="42.900000" y1="89.000000" x2="81.700000" y2="89.000000"  style="stroke: black; stroke-linecap:round; stroke-width:0.25; stroke-dasharray:3,3;"/>
<text x="30.000000" y="91.000000" font-family="Arial" font-size="7">PI</text>
<rect x="99.700000" y="83.000000" width="24.000000" height="24.000000" rx="0.1" ry="0.1" style="stroke:none;fill:#aaaaaa;;filter:url(#filter);"/>
<rect x="98.700000" y="82.000000" width="24.000000" height="24.000000" rx="0" ry="0" style="stroke:none;fill:#4B71A1;"/>
<text x="110.700000" y="96.000000" font-family="Arial" font-size="7" text-anchor="middle" fill="#FFFFFF">*</text>
<circle cx="100.700000" cy="84.000000" r="1"/>
<line x1="95.700000" y1="89.000000" x2="98.700000" y2="90.000000"  transform="rotate(0.000000,98.700000,90.000000)" style="stroke: black; stroke-width:0.25;"/>
<line x1="95.700000" y1="91.000000" x2="98.700000" y2="90.000000"  transform="rotate(0.000000,98.700000,90.000000)" style="stroke: black; stroke-width:0.25;"/>
<line x1="95.700000" y1="97.000000" x2="98.700000" y2="98.000000"  transform="rotate(0.000000,98.700000,98.000000)" style="stroke: black; stroke-width:0.25;"/>
<line x1="95.700000" y1="99.000000" x2="98.700000" y2="98.000000"  transform="rotate(0.000000,98.700000,98.000000)" style="stroke: black; stroke-width:0.25;"/>
<a xlink:href="freq-0x7f9f3a60aa40.svg">
<rect x="61.450000" y="141.000000" width="25.800000" height="24.000000" rx="0.1" ry="0.1" style="stroke:none;fill:#aaaaaa;;filter:url(#filter);"/>
<rect x="60.450000" y="140.000000" width="25.800000" height="24.000000" rx="0" ry="0" style="stroke:none;fill:#003366;"/>
</a>
<a xlink:href="freq-0x7f9f3a60aa40.svg">
<text x="73.350000" y="154.000000" font-family="Arial" font-size="7" text-anchor="middle" fill="#FFFFFF">freq</text>
</a>
<circle cx="62.450000" cy="142.000000" r="1"/>
<rect x="139.700000" y="99.000000" width="24.000000" height="24.000000" rx="0.1" ry="0.1" style="stroke:none;fill:#aaaaaa;;filter:url(#filter);"/>
<rect x="138.700000" y="98.000000" width="24.000000" height="24.000000" rx="0" ry="0" style="stroke:none;fill:#4B71A1;"/>
<text x="150.700000" y="112.000000" font-family="Arial" font-size="7" text-anchor="middle" fill="#FFFFFF">*</text>
<circle cx="140.700000" cy="100.000000" r="1"/>
<line x1="135.700000" y1="105.000000" x2="138.700000" y2="106.000000"  transform="rotate(0.000000,138.700000,106.000000)" style="stroke: black; stroke-width:0.25;"/>
<line x1="135.700000" y1="107.000000" x2="138.700000" y2="106.000000"  transform="rotate(0.000000,138.700000,106.000000)" style="stroke: black; stroke-width:0.25;"/>
<line x1="135.700000" y1="113.000000" x2="138.700000" y2="114.000000"  transform="rotate(0.000000,138.700000,114.000000)" style="stroke: black; stroke-width:0.25;"/>
<line x1="135.700000" y1="115.000000" x2="138.700000" y2="114.000000"  transform="rotate(0.000000,138.700000,114.000000)" style="stroke: black; stroke-width:0.25;"/>
<rect x="82.350000" y="173.000000" width="24.000000" height="24.000000" rx="0.1" ry="0.1" style="stroke:none;fill:#aaaaaa;;filter:url(#filter);"/>
<rect x="81.350000" y="172.000000" width="24.000000" height="24.000000" rx="0" ry="0" style="stroke:none;fill:#f44800;"/>
<text x="93.350000" y="186.000000" font-family="Arial" font-size="7" text-anchor="middle" fill="#FFFFFF">0.5</text>
<circle cx="83.350000" cy="174.000000" r="1"/>
<rect x="179.700000" y="115.000000" width="24.000000" height="24.000000" rx="0.1" ry="0.1" style="stroke:none;fill:#aaaaaa;;filter:url(#filter);"/>
<rect x="178.700000" y="114.000000" width="24.000000" height="24.000000" rx="0" ry="0" style="stroke:none;fill:#4B71A1;"/>
<text x="190.700000" y="128.000000" font-family="Arial" font-size="7" text-anchor="middle" fill="#FFFFFF">*</text>
<circle cx="180.700000" cy="116.000000" r="1"/>
<line x1="175.700000" y1="121.000000" x2="178.700000" y2="122.000000"  transform="rotate(0.000000,178.700000,122.000000)" style="stroke: black; stroke-width:0.25;"/>
<line x1="175.700000" y1="123.000000" x2="178.700000" y2="122.000000"  transform="rotate(0.000000,178.700000,122.000000)" style="stroke: black; stroke-width:0.25;"/>
<line x1="175.700000" y1="129.000000" x2="178.700000" y2="130.000000"  transform="rotate(0.000000,178.700000,130.000000)" style="stroke: black; stroke-width:0.25;"/>
<line x1="175.700000" y1="131.000000" x2="178.700000" y2="130.000000"  transform="rotate(0.000000,178.700000,130.000000)" style="stroke: black; stroke-width:0.25;"/>
<a xlink:href="SR-0x7f9f3c02fa40.svg">
<rect x="102.350000" y="205.000000" width="24.000000" height="24.000000" rx="0.1" ry="0.1" style="stroke:none;fill:#aaaaaa;;filter:url(#filter);"/>
<rect x="101.350000" y="204.000000" width="24.000000" height="24.000000" rx="0" ry="0" style="stroke:none;fill:#003366;"/>
</a>
<a xlink:href="SR-0x7f9f3c02fa40.svg">
<text x="113.350000" y="218.000000" font-family="Arial" font-size="7" text-anchor="middle" fill="#FFFFFF">SR</text>
</a>
<circle cx="103.350000" cy="206.000000" r="1"/>
<rect x="219.700000" y="131.000000" width="24.000000" height="24.000000" rx="0.1" ry="0.1" style="stroke:none;fill:#aaaaaa;;filter:url(#filter);"/>
<rect x="218.700000" y="130.000000" width="24.000000" height="24.000000" rx="0" ry="0" style="stroke:none;fill:#4B71A1;"/>
<text x="230.700000" y="144.000000" font-family="Arial" font-size="7" text-anchor="middle" fill="#FFFFFF">/</text>
<circle cx="220.700000" cy="132.000000" r="1"/>
<line x1="215.700000" y1="137.000000" x2="218.700000" y2="138.000000"  transform="rotate(0.000000,218.700000,138.000000)" style="stroke: black; stroke-width:0.25;"/>
<line x1="215.700000" y1="139.000000" x2="218.700000" y2="138.000000"  transform="rotate(0.000000,218.700000,138.000000)" style="stroke: black; stroke-width:0.25;"/>
<line x1="215.700000" y1="145.000000" x2="218.700000" y2="146.000000"  transform="rotate(0.000000,218.700000,146.000000)" style="stroke: black; stroke-width:0.25;"/>
<line x1="215.700000" y1="147.000000" x2="218.700000" y2="146.000000"  transform="rotate(0.000000,218.700000,146.000000)" style="stroke: black; stroke-width:0.25;"/>
<rect x="251.700000" y="131.000000" width="24.000000" height="24.000000" rx="0.1" ry="0.1" style="stroke:none;fill:#aaaaaa;;filter:url(#filter);"/>
<rect x="250.700000" y="130.000000" width="24.000000" height="24.000000" rx="0" ry="0" style="stroke:none;fill:#4B71A1;"/>
<text x="262.700000" y="144.000000" font-family="Arial" font-size="7" text-anchor="middle" fill="#FFFFFF">tan</text>
<circle cx="252.700000" cy="132.000000" r="1"/>
<line x1="247.700000" y1="141.000000" x2="250.700000" y2="142.000000"  transform="rotate(0.000000,250.700000,142.000000)" style="stroke: black; stroke-width:0.25;"/>
<line x1="247.700000" y1="143.000000" x2="250.700000" y2="142.000000"  transform="rotate(0.000000,250.700000,142.000000)" style="stroke: black; stroke-width:0.25;"/>
<rect x="291.700000" y="115.000000" width="24.000000" height="24.000000" rx="0.1" ry="0.1" style="stroke:none;fill:#aaaaaa;;filter:url(#filter);"/>
<rect x="290.700000" y="114.000000" width="24.000000" height="24.000000" rx="0" ry="0" style="stroke:none;fill:#4B71A1;"/>
<text x="302.700000" y="128.000000" font-family="Arial" font-size="7" text-anchor="middle" fill="#FFFFFF">/</text>
<circle cx="292.700000" cy="116.000000" r="1"/>
<line x1="287.700000" y1="121.000000" x2="290.700000" y2="122.000000"  transform="rotate(0.000000,290.700000,122.000000)" style="stroke: black; stroke-width:0.25;"/>
<line x1="287.700000" y1="123.000000" x2="290.700000" y2="122.000000"  transform="rotate(0.000000,290.700000,122.000000)" style="stroke: black; stroke-width:0.25;"/>
<line x1="287.700000" y1="129.000000" x2="290.700000" y2="130.000000"  transform="rotate(0.000000,290.700000,130.000000)" style="stroke: black; stroke-width:0.25;"/>
<line x1="287.700000" y1="131.000000" x2="290.700000" y2="130.000000"  transform="rotate(0.000000,290.700000,130.000000)" style="stroke: black; stroke-width:0.25;"/>
<line x1="15.000000" y1="15.000000" x2="15.000000" y2="237.000000"  style="stroke: black; stroke-linecap:round; stroke-width:0.25; stroke-dasharray:3,3;"/>
<line x1="15.000000" y1="237.000000" x2="331.700000" y2="237.000000"  style="stroke: black; stroke-linecap:round; stroke-width:0.25; stroke-dasharray:3,3;"/>
<line x1="331.700000" y1="237.000000" x2="331.700000" y2="15.000000"  style="stroke: black; stroke-linecap:round; stroke-width:0.25; stroke-dasharray:3,3;"/>
<line x1="15.000000" y1="15.000000" x2="20.000000" y2="15.000000"  style="stroke: black; stroke-linecap:round; stroke-width:0.25; stroke-dasharray:3,3;"/>
<line x1="29.675000" y1="15.000000" x2="331.700000" y2="15.000000"  style="stroke: black; stroke-linecap:round; stroke-width:0.25; stroke-dasharray:3,3;"/>
<text x="20.000000" y="17.000000" font-family="Arial" font-size="7">c</text>
<line x1="333.700000" y1="125.000000" x2="336.700000" y2="126.000000"  transform="rotate(0.000000,336.700000,126.000000)" style="stroke: black; stroke-width:0.25;"/>
<line x1="333.700000" y1="127.000000" x2="336.700000" y2="126.000000"  transform="rotate(0.000000,336.700000,126.000000)" style="stroke: black; stroke-width:0.25;"/>
<line x1="65.350000" y1="68.000000" x2="69.350000" y2="68.000000"  style="stroke:black; stroke-linecap:round; stroke-width:0.25;"/>
<line x1="69.350000" y1="68.000000" x2="86.700000" y2="68.000000"  style="stroke:black; stroke-linecap:round; stroke-width:0.25;"/>
<line x1="72.700000" y1="110.000000" x2="76.700000" y2="110.000000"  style="stroke:black; stroke-linecap:round; stroke-width:0.25;"/>
<line x1="76.700000" y1="110.000000" x2="86.700000" y2="110.000000"  style="stroke:black; stroke-linecap:round; stroke-width:0.25;"/>
<line x1="86.250000" y1="152.000000" x2="90.250000" y2="152.000000"  style="stroke:black; stroke-linecap:round; stroke-width:0.25;"/>
<line x1="86.700000" y1="68.000000" x2="94.700000" y2="68.000000"  style="stroke:black; stroke-linecap:round; stroke-width:0.25;"/>
<line x1="86.700000" y1="98.000000" x2="94.700000" y2="98.000000"  style="stroke:black; stroke-linecap:round; stroke-width:0.25;"/>
<line x1="86.700000" y1="110.000000" x2="86.700000" y2="98.000000"  style="stroke:black; stroke-linecap:round; stroke-width:0.25;"/>
<line x1="86.700000" y1="110.000000" x2="86.700000" y2="110.000000"  style="stroke:black; stroke-linecap:round; stroke-width:0.25;"/>
<line x1="90.250000" y1="152.000000" x2="126.700000" y2="152.000000"  style="stroke:black; stroke-linecap:round; stroke-width:0.25;"/>
<line x1="94.700000" y1="68.000000" x2="94.700000" y2="90.000000"  style="stroke:black; stroke-linecap:round; stroke-width:0.25;"/>
<line x1="94.700000" y1="90.000000" x2="94.700000" y2="90.000000"  style="stroke:black; stroke-linecap:round; stroke-width:0.25;"/>
<line x1="94.700000" y1="90.000000" x2="98.700000" y2="90.000000"  style="stroke:black; stroke-linecap:round; stroke-width:0.25;"/>
<line x1="94.700000" y1="98.000000" x2="98.700000" y2="98.000000"  style="stroke:black; stroke-linecap:round; stroke-width:0.25;"/>
<line x1="105.350000" y1="184.000000" x2="109.350000" y2="184.000000"  style="stroke:black; stroke-linecap:round; stroke-width:0.25;"/>
<line x1="109.350000" y1="184.000000" x2="166.700000" y2="184.000000"  style="stroke:black; stroke-linecap:round; stroke-width:0.25;"/>
<line x1="122.700000" y1="94.000000" x2="126.700000" y2="94.000000"  style="stroke:black; stroke-linecap:round; stroke-width:0.25;"/>
<line x1="125.350000" y1="216.000000" x2="129.350000" y2="216.000000"  style="stroke:black; stroke-linecap:round; stroke-width:0.25;"/>
<line x1="126.700000" y1="94.000000" x2="134.700000" y2="94.000000"  style="stroke:black; stroke-linecap:round; stroke-width:0.25;"/>
<line x1="126.700000" y1="114.000000" x2="134.700000" y2="114.000000"  style="stroke:black; stroke-linecap:round; stroke-width:0.25;"/>
<line x1="126.700000" y1="152.000000" x2="126.700000" y2="114.000000"  style="stroke:black; stroke-linecap:round; stroke-width:0.25;"/>
<line x1="126.700000" y1="152.000000" x2="126.700000" y2="152.000000"  style="stroke:black; stroke-linecap:round; stroke-width:0.25;"/>
<line x1="129.350000" y1="216.000000" x2="206.700000" y2="216.000000"  style="stroke:black; stroke-linecap:round; stroke-width:0.25;"/>
<line x1="134.700000" y1="94.000000" x2="134.700000" y2="106.000000"  style="stroke:black; stroke-linecap:round; stroke-width:0.25;"/>
<line x1="134.700000" y1="106.000000" x2="134.700000" y2="106.000000"  style="stroke:black; stroke-linecap:round; stroke-width:0.25;"/>
<line x1="134.700000" y1="106.000000" x2="138.700000" y2="106.000000"  style="stroke:black; stroke-linecap:round; stroke-width:0.25;"/>
<line x1="134.700000" y1="114.000000" x2="138.700000" y2="114.000000"  style="stroke:black; stroke-linecap:round; stroke-width:0.25;"/>
<line x1="161.350000" y1="36.000000" x2="165.350000" y2="36.000000"  style="stroke:black; stroke-linecap:round; stroke-width:0.25;"/>
<line x1="162.700000" y1="110.000000" x2="166.700000" y2="110.000000"  style="stroke:black; stroke-linecap:round; stroke-width:0.25;"/>
<line x1="165.350000" y1="36.000000" x2="278.700000" y2="36.000000"  style="stroke:black; stroke-linecap:round; stroke-width:0.25;"/>
<line x1="166.700000" y1="110.000000" x2="174.700000" y2="110.000000"  style="stroke:black; stroke-linecap:round; stroke-width:0.25;"/>
<line x1="166.700000" y1="130.000000" x2="174.700000" y2="130.000000"  style="stroke:black; stroke-linecap:round; stroke-width:0.25;"/>
<line x1="166.700000" y1="184.000000" x2="166.700000" y2="130.000000"  style="stroke:black; stroke-linecap:round; stroke-width:0.25;"/>
<line x1="166.700000" y1="184.000000" x2="166.700000" y2="184.000000"  style="stroke:black; stroke-linecap:round; stroke-width:0.25;"/>
<line x1="174.700000" y1="110.000000" x2="174.700000" y2="122.000000"  style="stroke:black; stroke-linecap:round; stroke-width:0.25;"/>
<line x1="174.700000" y1="122.000000" x2="174.700000" y2="122.000000"  style="stroke:black; stroke-linecap:round; stroke-width:0.25;"/>
<line x1="174.700000" y1="122.000000" x2="178.700000" y2="122.000000"  style="stroke:black; stroke-linecap:round; stroke-width:0.25;"/>
<line x1="174.700000" y1="130.000000" x2="178.700000" y2="130.000000"  style="stroke:black; stroke-linecap:round; stroke-width:0.25;"/>
<line x1="202.700000" y1="126.000000" x2="206.700000" y2="126.000000"  style="stroke:black; stroke-linecap:round; stroke-width:0.25;"/>
<line x1="206.700000" y1="126.000000" x2="214.700000" y2="126.000000"  style="stroke:black; stroke-linecap:round; stroke-width:0.25;"/>
<line x1="206.700000" y1="146.000000" x2="214.700000" y2="146.000000"  style="stroke:black; stroke-linecap:round; stroke-width:0.25;"/>
<line x1="206.700000" y1="216.000000" x2="206.700000" y2="146.000000"  style="stroke:black; stroke-linecap:round; stroke-width:0.25;"/>
<line x1="206.700000" y1="216.000000" x2="206.700000" y2="216.000000"  style="stroke:black; stroke-linecap:round; stroke-width:0.25;"/>
<line x1="214.700000" y1="126.000000" x2="214.700000" y2="138.000000"  style="stroke:black; stroke-linecap:round; stroke-width:0.25;"/>
<line x1="214.700000" y1="138.000000" x2="214.700000" y2="138.000000"  style="stroke:black; stroke-linecap:round; stroke-width:0.25;"/>
<line x1="214.700000" y1="138.000000" x2="218.700000" y2="138.000000"  style="stroke:black; stroke-linecap:round; stroke-width:0.25;"/>
<line x1="214.700000" y1="146.000000" x2="218.700000" y2="146.000000"  style="stroke:black; stroke-linecap:round; stroke-width:0.25;"/>
<line x1="242.700000" y1="142.000000" x2="246.700000" y2="142.000000"  style="stroke:black; stroke-linecap:round; stroke-width:0.25;"/>
<line x1="246.700000" y1="142.000000" x2="246.700000" y2="142.000000"  style="stroke:black; stroke-linecap:round; stroke-width:0.25;"/>
<line x1="246.700000" y1="142.000000" x2="250.700000" y2="142.000000"  style="stroke:black; stroke-linecap:round; stroke-width:0.25;"/>
<line x1="274.700000" y1="142.000000" x2="278.700000" y2="142.000000"  style="stroke:black; stroke-linecap:round; stroke-width:0.25;"/>
<line x1="278.700000" y1="36.000000" x2="286.700000" y2="36.000000"  style="stroke:black; stroke-linecap:round; stroke-width:0.25;"/>
<line x1="278.700000" y1="130.000000" x2="286.700000" y2="130.000000"  style="stroke:black; stroke-linecap:round; stroke-width:0.25;"/>
<line x1="278.700000" y1="142.000000" x2="278.700000" y2="130.000000"  style="stroke:black; stroke-linecap:round; stroke-width:0.25;"/>
<line x1="278.700000" y1="142.000000" x2="278.700000" y2="142.000000"  style="stroke:black; stroke-linecap:round; stroke-width:0.25;"/>
<line x1="286.700000" y1="36.000000" x2="286.700000" y2="122.000000"  style="stroke:black; stroke-linecap:round; stroke-width:0.25;"/>
<line x1="286.700000" y1="122.000000" x2="286.700000" y2="122.000000"  style="stroke:black; stroke-linecap:round; stroke-width:0.25;"/>
<line x1="286.700000" y1="122.000000" x2="290.700000" y2="122.000000"  style="stroke:black; stroke-linecap:round; stroke-width:0.25;"/>
<line x1="286.700000" y1="130.000000" x2="290.700000" y2="130.000000"  style="stroke:black; stroke-linecap:round; stroke-width:0.25;"/>
<line x1="314.700000" y1="126.000000" x2="318.700000" y2="126.000000"  style="stroke:black; stroke-linecap:round; stroke-width:0.25;"/>
<line x1="318.700000" y1="126.000000" x2="318.700000" y2="126.000000"  style="stroke:black; stroke-linecap:round; stroke-width:0.25;"/>
<line x1="318.700000" y1="126.000000" x2="322.700000" y2="126.000000"  style="stroke:black; stroke-linecap:round; stroke-width:0.25;"/>
<line x1="322.700000" y1="126.000000" x2="326.700000" y2="126.000000"  style="stroke:black; stroke-linecap:round; stroke-width:0.25;"/>
<line x1="326.700000" y1="126.000000" x2="336.700000" y2="126.000000"  style="stroke:black; stroke-linecap:round; stroke-width:0.25;"/>
</svg>
