<?xml version="1.0"?>
<svg xmlns="http://www.w3.org/2000/svg" xmlns:xlink="http://www.w3.org/1999/xlink" viewBox="0 0 870.000000 72.000000" width="435.000000mm" height="36.000000mm" version="1.1">
<defs>
   <filter id="filter" filterRes="18" x="0" y="0">
     <feGaussianBlur in="SourceGraphic" stdDeviation="1.55" result="blur"/>
     <feOffset in="blur" dx="3" dy="3"/>
   </filter>
</defs>
<rect x="1.000000" y="1.000000" width="869.000000" height="71.000000" rx="0.1" ry="0.1" style="stroke:none;fill:#aaaaaa;;filter:url(#filter);"/>
<rect x="0.000000" y="0.000000" width="869.000000" height="71.000000" rx="0" ry="0" style="stroke:none;fill:#ffffff;"/>
<text x="10.000000" y="7.000000" font-family="Arial" font-size="7"></text>
<a xlink:href="lfnoise0-0x7f9f3c0b69c0.svg">
<rect x="25.000000" y="25.000000" width="129.000000" height="24.000000" rx="0.1" ry="0.1" style="stroke:none;fill:#aaaaaa;;filter:url(#filter);"/>
<rect x="24.000000" y="24.000000" width="129.000000" height="24.000000" rx="0" ry="0" style="stroke:none;fill:#003366;"/>
</a>
<a xlink:href="lfnoise0-0x7f9f3c0b69c0.svg">
<text x="88.500000" y="38.000000" font-family="Arial" font-size="7" text-anchor="middle" fill="#FFFFFF">lfnoise0(hsli...,0.999f : *))</text>
</a>
<circle cx="26.000000" cy="26.000000" r="1"/>
<a xlink:href="lowpass-0x7f9f3c0634d0.svg">
<rect x="162.000000" y="25.000000" width="129.000000" height="24.000000" rx="0.1" ry="0.1" style="stroke:none;fill:#aaaaaa;;filter:url(#filter);"/>
<rect x="161.000000" y="24.000000" width="129.000000" height="24.000000" rx="0" ry="0" style="stroke:none;fill:#003366;"/>
</a>
<a xlink:href="lowpass-0x7f9f3c0634d0.svg">
<text x="225.500000" y="38.000000" font-family="Arial" font-size="7" text-anchor="middle" fill="#FFFFFF">lowpass(1)(hs...,0.999f : *))</text>
</a>
<circle cx="163.000000" cy="26.000000" r="1"/>
<line x1="158.000000" y1="35.000000" x2="161.000000" y2="36.000000"  transform="rotate(0.000000,161.000000,36.000000)" style="stroke: black; stroke-width:0.25;"/>
<line x1="158.000000" y1="37.000000" x2="161.000000" y2="36.000000"  transform="rotate(0.000000,161.000000,36.000000)" style="stroke: black; stroke-width:0.25;"/>
<a xlink:href="lowpass-0x7f9f3c0634d0.svg">
<rect x="299.000000" y="25.000000" width="129.000000" height="24.000000" rx="0.1" ry="0.1" style="stroke:none;fill:#aaaaaa;;filter:url(#filter);"/>
<rect x="298.000000" y="24.000000" width="129.000000" height="24.000000" rx="0" ry="0" style="stroke:none;fill:#003366;"/>
</a>
<a xlink:href="lowpass-0x7f9f3c0634d0.svg">
<text x="362.500000" y="38.000000" font-family="Arial" font-size="7" text-anchor="middle" fill="#FFFFFF">lowpass(1)(hs...,0.999f : *))</text>
</a>
<circle cx="300.000000" cy="26.000000" r="1"/>
<line x1="295.000000" y1="35.000000" x2="298.000000" y2="36.000000"  transform="rotate(0.000000,298.000000,36.000000)" style="stroke: black; stroke-width:0.25;"/>
<line x1="295.000000" y1="37.000000" x2="298.000000" y2="36.000000"  transform="rotate(0.000000,298.000000,36.000000)" style="stroke: black; stroke-width:0.25;"/>
<a xlink:href="lowpass-0x7f9f3c0634d0.svg">
<rect x="436.000000" y="25.000000" width="129.000000" height="24.000000" rx="0.1" ry="0.1" style="stroke:none;fill:#aaaaaa;;filter:url(#filter);"/>
<rect x="435.000000" y="24.000000" width="129.000000" height="24.000000" rx="0" ry="0" style="stroke:none;fill:#003366;"/>
</a>
<a xlink:href="lowpass-0x7f9f3c0634d0.svg">
<text x="499.500000" y="38.000000" font-family="Arial" font-size="7" text-anchor="middle" fill="#FFFFFF">lowpass(1)(hs...,0.999f : *))</text>
</a>
<circle cx="437.000000" cy="26.000000" r="1"/>
<line x1="432.000000" y1="35.000000" x2="435.000000" y2="36.000000"  transform="rotate(0.000000,435.000000,36.000000)" style="stroke: black; stroke-width:0.25;"/>
<line x1="432.000000" y1="37.000000" x2="435.000000" y2="36.000000"  transform="rotate(0.000000,435.000000,36.000000)" style="stroke: black; stroke-width:0.25;"/>
<a xlink:href="lowpass-0x7f9f3c0634d0.svg">
<rect x="573.000000" y="25.000000" width="129.000000" height="24.000000" rx="0.1" ry="0.1" style="stroke:none;fill:#aaaaaa;;filter:url(#filter);"/>
<rect x="572.000000" y="24.000000" width="129.000000" height="24.000000" rx="0" ry="0" style="stroke:none;fill:#003366;"/>
</a>
<a xlink:href="lowpass-0x7f9f3c0634d0.svg">
<text x="636.500000" y="38.000000" font-family="Arial" font-size="7" text-anchor="middle" fill="#FFFFFF">lowpass(1)(hs...,0.999f : *))</text>
</a>
<circle cx="574.000000" cy="26.000000" r="1"/>
<line x1="569.000000" y1="35.000000" x2="572.000000" y2="36.000000"  transform="rotate(0.000000,572.000000,36.000000)" style="stroke: black; stroke-width:0.25;"/>
<line x1="569.000000" y1="37.000000" x2="572.000000" y2="36.000000"  transform="rotate(0.000000,572.000000,36.000000)" style="stroke: black; stroke-width:0.25;"/>
<a xlink:href="lowpass-0x7f9f3c0634d0.svg">
<rect x="710.000000" y="25.000000" width="129.000000" height="24.000000" rx="0.1" ry="0.1" style="stroke:none;fill:#aaaaaa;;filter:url(#filter);"/>
<rect x="709.000000" y="24.000000" width="129.000000" height="24.000000" rx="0" ry="0" style="stroke:none;fill:#003366;"/>
</a>
<a xlink:href="lowpass-0x7f9f3c0634d0.svg">
<text x="773.500000" y="38.000000" font-family="Arial" font-size="7" text-anchor="middle" fill="#FFFFFF">lowpass(1)(hs...,0.999f : *))</text>
</a>
<circle cx="711.000000" cy="26.000000" r="1"/>
<line x1="706.000000" y1="35.000000" x2="709.000000" y2="36.000000"  transform="rotate(0.000000,709.000000,36.000000)" style="stroke: black; stroke-width:0.25;"/>
<line x1="706.000000" y1="37.000000" x2="709.000000" y2="36.000000"  transform="rotate(0.000000,709.000000,36.000000)" style="stroke: black; stroke-width:0.25;"/>
<line x1="15.000000" y1="15.000000" x2="15.000000" y2="57.000000"  style="stroke: black; stroke-linecap:round; stroke-width:0.25; stroke-dasharray:3,3;"/>
<line x1="15.000000" y1="57.000000" x2="855.000000" y2="57.000000"  style="stroke: black; stroke-linecap:round; stroke-width:0.25; stroke-dasharray:3,3;"/>
<line x1="855.000000" y1="57.000000" x2="855.000000" y2="15.000000"  style="stroke: black; stroke-linecap:round; stroke-width:0.25; stroke-dasharray:3,3;"/>
<line x1="15.000000" y1="15.000000" x2="20.000000" y2="15.000000"  style="stroke: black; stroke-linecap:round; stroke-width:0.25; stroke-dasharray:3,3;"/>
<line x1="49.025000" y1="15.000000" x2="855.000000" y2="15.000000"  style="stroke: black; stroke-linecap:round; stroke-width:0.25; stroke-dasharray:3,3;"/>
<text x="20.000000" y="17.000000" font-family="Arial" font-size="7">process</text>
<line x1="857.000000" y1="35.000000" x2="860.000000" y2="36.000000"  transform="rotate(0.000000,860.000000,36.000000)" style="stroke: black; stroke-width:0.25;"/>
<line x1="857.000000" y1="37.000000" x2="860.000000" y2="36.000000"  transform="rotate(0.000000,860.000000,36.000000)" style="stroke: black; stroke-width:0.25;"/>
<line x1="153.000000" y1="36.000000" x2="157.000000" y2="36.000000"  style="stroke:black; stroke-linecap:round; stroke-width:0.25;"/>
<line x1="157.000000" y1="36.000000" x2="157.000000" y2="36.000000"  style="stroke:black; stroke-linecap:round; stroke-width:0.25;"/>
<line x1="157.000000" y1="36.000000" x2="161.000000" y2="36.000000"  style="stroke:black; stroke-linecap:round; stroke-width:0.25;"/>
<line x1="290.000000" y1="36.000000" x2="294.000000" y2="36.000000"  style="stroke:black; stroke-linecap:round; stroke-width:0.25;"/>
<line x1="294.000000" y1="36.000000" x2="294.000000" y2="36.000000"  style="stroke:black; stroke-linecap:round; stroke-width:0.25;"/>
<line x1="294.000000" y1="36.000000" x2="298.000000" y2="36.000000"  style="stroke:black; stroke-linecap:round; stroke-width:0.25;"/>
<line x1="427.000000" y1="36.000000" x2="431.000000" y2="36.000000"  style="stroke:black; stroke-linecap:round; stroke-width:0.25;"/>
<line x1="431.000000" y1="36.000000" x2="431.000000" y2="36.000000"  style="stroke:black; stroke-linecap:round; stroke-width:0.25;"/>
<line x1="431.000000" y1="36.000000" x2="435.000000" y2="36.000000"  style="stroke:black; stroke-linecap:round; stroke-width:0.25;"/>
<line x1="564.000000" y1="36.000000" x2="568.000000" y2="36.000000"  style="stroke:black; stroke-linecap:round; stroke-width:0.25;"/>
<line x1="568.000000" y1="36.000000" x2="568.000000" y2="36.000000"  style="stroke:black; stroke-linecap:round; stroke-width:0.25;"/>
<line x1="568.000000" y1="36.000000" x2="572.000000" y2="36.000000"  style="stroke:black; stroke-linecap:round; stroke-width:0.25;"/>
<line x1="701.000000" y1="36.000000" x2="705.000000" y2="36.000000"  style="stroke:black; stroke-linecap:round; stroke-width:0.25;"/>
<line x1="705.000000" y1="36.000000" x2="705.000000" y2="36.000000"  style="stroke:black; stroke-linecap:round; stroke-width:0.25;"/>
<line x1="705.000000" y1="36.000000" x2="709.000000" y2="36.000000"  style="stroke:black; stroke-linecap:round; stroke-width:0.25;"/>
<line x1="838.000000" y1="36.000000" x2="842.000000" y2="36.000000"  style="stroke:black; stroke-linecap:round; stroke-width:0.25;"/>
<line x1="842.000000" y1="36.000000" x2="842.000000" y2="36.000000"  style="stroke:black; stroke-linecap:round; stroke-width:0.25;"/>
<line x1="842.000000" y1="36.000000" x2="846.000000" y2="36.000000"  style="stroke:black; stroke-linecap:round; stroke-width:0.25;"/>
<line x1="846.000000" y1="36.000000" x2="850.000000" y2="36.000000"  style="stroke:black; stroke-linecap:round; stroke-width:0.25;"/>
<line x1="850.000000" y1="36.000000" x2="860.000000" y2="36.000000"  style="stroke:black; stroke-linecap:round; stroke-width:0.25;"/>
</svg>
