<?xml version="1.0"?>
<svg xmlns="http://www.w3.org/2000/svg" xmlns:xlink="http://www.w3.org/1999/xlink" viewBox="0 0 297.000000 168.000000" width="148.500000mm" height="84.000000mm" version="1.1">
<defs>
   <filter id="filter" filterRes="18" x="0" y="0">
     <feGaussianBlur in="SourceGraphic" stdDeviation="1.55" result="blur"/>
     <feOffset in="blur" dx="3" dy="3"/>
   </filter>
</defs>
<a xlink:href="latch-0x7fc0f2cf5bd0.svg">
<rect x="1.000000" y="1.000000" width="296.000000" height="167.000000" rx="0.1" ry="0.1" style="stroke:none;fill:#aaaaaa;;filter:url(#filter);"/>
<rect x="0.000000" y="0.000000" width="296.000000" height="167.000000" rx="0" ry="0" style="stroke:none;fill:#ffffff;"/>
</a>
<text x="10.000000" y="7.000000" font-family="Arial" font-size="7"></text>
<a xlink:href="osc-0x7fc0f2cf49f0.svg">
<rect x="25.000000" y="25.000000" width="129.000000" height="24.000000" rx="0.1" ry="0.1" style="stroke:none;fill:#aaaaaa;;filter:url(#filter);"/>
<rect x="24.000000" y="24.000000" width="129.000000" height="24.000000" rx="0" ry="0" style="stroke:none;fill:#003366;"/>
</a>
<a xlink:href="osc-0x7fc0f2cf49f0.svg">
<text x="88.500000" y="38.000000" font-family="Arial" font-size="7" text-anchor="middle" fill="#FFFFFF">osc(hslider(&quot;...,0.999f : *))</text>
</a>
<circle cx="26.000000" cy="26.000000" r="1"/>
<rect x="162.000000" y="25.000000" width="24.000000" height="24.000000" rx="0.1" ry="0.1" style="stroke:none;fill:#aaaaaa;;filter:url(#filter);"/>
<rect x="161.000000" y="24.000000" width="24.000000" height="24.000000" rx="0" ry="0" style="stroke:none;fill:#4B71A1;"/>
<text x="173.000000" y="38.000000" font-family="Arial" font-size="7" text-anchor="middle" fill="#FFFFFF">mem</text>
<circle cx="163.000000" cy="26.000000" r="1"/>
<line x1="158.000000" y1="35.000000" x2="161.000000" y2="36.000000"  transform="rotate(0.000000,161.000000,36.000000)" style="stroke: black; stroke-width:0.25;"/>
<line x1="158.000000" y1="37.000000" x2="161.000000" y2="36.000000"  transform="rotate(0.000000,161.000000,36.000000)" style="stroke: black; stroke-width:0.25;"/>
<rect x="93.500000" y="57.000000" width="24.000000" height="24.000000" rx="0.1" ry="0.1" style="stroke:none;fill:#aaaaaa;;filter:url(#filter);"/>
<rect x="92.500000" y="56.000000" width="24.000000" height="24.000000" rx="0" ry="0" style="stroke:none;fill:#f44800;"/>
<text x="104.500000" y="70.000000" font-family="Arial" font-size="7" text-anchor="middle" fill="#FFFFFF">0</text>
<circle cx="94.500000" cy="58.000000" r="1"/>
<rect x="202.000000" y="41.000000" width="24.000000" height="24.000000" rx="0.1" ry="0.1" style="stroke:none;fill:#aaaaaa;;filter:url(#filter);"/>
<rect x="201.000000" y="40.000000" width="24.000000" height="24.000000" rx="0" ry="0" style="stroke:none;fill:#4B71A1;"/>
<text x="213.000000" y="54.000000" font-family="Arial" font-size="7" text-anchor="middle" fill="#FFFFFF">&lt;=</text>
<circle cx="203.000000" cy="42.000000" r="1"/>
<line x1="198.000000" y1="47.000000" x2="201.000000" y2="48.000000"  transform="rotate(0.000000,201.000000,48.000000)" style="stroke: black; stroke-width:0.25;"/>
<line x1="198.000000" y1="49.000000" x2="201.000000" y2="48.000000"  transform="rotate(0.000000,201.000000,48.000000)" style="stroke: black; stroke-width:0.25;"/>
<line x1="198.000000" y1="55.000000" x2="201.000000" y2="56.000000"  transform="rotate(0.000000,201.000000,56.000000)" style="stroke: black; stroke-width:0.25;"/>
<line x1="198.000000" y1="57.000000" x2="201.000000" y2="56.000000"  transform="rotate(0.000000,201.000000,56.000000)" style="stroke: black; stroke-width:0.25;"/>
<a xlink:href="osc-0x7fc0f2cf49f0.svg">
<rect x="41.000000" y="89.000000" width="129.000000" height="24.000000" rx="0.1" ry="0.1" style="stroke:none;fill:#aaaaaa;;filter:url(#filter);"/>
<rect x="40.000000" y="88.000000" width="129.000000" height="24.000000" rx="0" ry="0" style="stroke:none;fill:#003366;"/>
</a>
<a xlink:href="osc-0x7fc0f2cf49f0.svg">
<text x="104.500000" y="102.000000" font-family="Arial" font-size="7" text-anchor="middle" fill="#FFFFFF">osc(hslider(&quot;...,0.999f : *))</text>
</a>
<circle cx="42.000000" cy="90.000000" r="1"/>
<rect x="93.500000" y="121.000000" width="24.000000" height="24.000000" rx="0.1" ry="0.1" style="stroke:none;fill:#aaaaaa;;filter:url(#filter);"/>
<rect x="92.500000" y="120.000000" width="24.000000" height="24.000000" rx="0" ry="0" style="stroke:none;fill:#f44800;"/>
<text x="104.500000" y="134.000000" font-family="Arial" font-size="7" text-anchor="middle" fill="#FFFFFF">0</text>
<circle cx="94.500000" cy="122.000000" r="1"/>
<rect x="186.000000" y="105.000000" width="24.000000" height="24.000000" rx="0.1" ry="0.1" style="stroke:none;fill:#aaaaaa;;filter:url(#filter);"/>
<rect x="185.000000" y="104.000000" width="24.000000" height="24.000000" rx="0" ry="0" style="stroke:none;fill:#4B71A1;"/>
<text x="197.000000" y="118.000000" font-family="Arial" font-size="7" text-anchor="middle" fill="#FFFFFF">&gt;</text>
<circle cx="187.000000" cy="106.000000" r="1"/>
<line x1="182.000000" y1="111.000000" x2="185.000000" y2="112.000000"  transform="rotate(0.000000,185.000000,112.000000)" style="stroke: black; stroke-width:0.25;"/>
<line x1="182.000000" y1="113.000000" x2="185.000000" y2="112.000000"  transform="rotate(0.000000,185.000000,112.000000)" style="stroke: black; stroke-width:0.25;"/>
<line x1="182.000000" y1="119.000000" x2="185.000000" y2="120.000000"  transform="rotate(0.000000,185.000000,120.000000)" style="stroke: black; stroke-width:0.25;"/>
<line x1="182.000000" y1="121.000000" x2="185.000000" y2="120.000000"  transform="rotate(0.000000,185.000000,120.000000)" style="stroke: black; stroke-width:0.25;"/>
<rect x="242.000000" y="73.000000" width="24.000000" height="24.000000" rx="0.1" ry="0.1" style="stroke:none;fill:#aaaaaa;;filter:url(#filter);"/>
<rect x="241.000000" y="72.000000" width="24.000000" height="24.000000" rx="0" ry="0" style="stroke:none;fill:#4B71A1;"/>
<text x="253.000000" y="86.000000" font-family="Arial" font-size="7" text-anchor="middle" fill="#FFFFFF">&amp;</text>
<circle cx="243.000000" cy="74.000000" r="1"/>
<line x1="238.000000" y1="79.000000" x2="241.000000" y2="80.000000"  transform="rotate(0.000000,241.000000,80.000000)" style="stroke: black; stroke-width:0.25;"/>
<line x1="238.000000" y1="81.000000" x2="241.000000" y2="80.000000"  transform="rotate(0.000000,241.000000,80.000000)" style="stroke: black; stroke-width:0.25;"/>
<line x1="238.000000" y1="87.000000" x2="241.000000" y2="88.000000"  transform="rotate(0.000000,241.000000,88.000000)" style="stroke: black; stroke-width:0.25;"/>
<line x1="238.000000" y1="89.000000" x2="241.000000" y2="88.000000"  transform="rotate(0.000000,241.000000,88.000000)" style="stroke: black; stroke-width:0.25;"/>
<line x1="15.000000" y1="15.000000" x2="15.000000" y2="153.000000"  style="stroke: black; stroke-linecap:round; stroke-width:0.25; stroke-dasharray:3,3;"/>
<line x1="15.000000" y1="153.000000" x2="282.000000" y2="153.000000"  style="stroke: black; stroke-linecap:round; stroke-width:0.25; stroke-dasharray:3,3;"/>
<line x1="282.000000" y1="153.000000" x2="282.000000" y2="15.000000"  style="stroke: black; stroke-linecap:round; stroke-width:0.25; stroke-dasharray:3,3;"/>
<line x1="15.000000" y1="15.000000" x2="20.000000" y2="15.000000"  style="stroke: black; stroke-linecap:round; stroke-width:0.25; stroke-dasharray:3,3;"/>
<line x1="29.675000" y1="15.000000" x2="282.000000" y2="15.000000"  style="stroke: black; stroke-linecap:round; stroke-width:0.25; stroke-dasharray:3,3;"/>
<text x="20.000000" y="17.000000" font-family="Arial" font-size="7">s</text>
<line x1="284.000000" y1="83.000000" x2="287.000000" y2="84.000000"  transform="rotate(0.000000,287.000000,84.000000)" style="stroke: black; stroke-width:0.25;"/>
<line x1="284.000000" y1="85.000000" x2="287.000000" y2="84.000000"  transform="rotate(0.000000,287.000000,84.000000)" style="stroke: black; stroke-width:0.25;"/>
<line x1="116.500000" y1="68.000000" x2="120.500000" y2="68.000000"  style="stroke:black; stroke-linecap:round; stroke-width:0.25;"/>
<line x1="116.500000" y1="132.000000" x2="120.500000" y2="132.000000"  style="stroke:black; stroke-linecap:round; stroke-width:0.25;"/>
<line x1="120.500000" y1="68.000000" x2="189.000000" y2="68.000000"  style="stroke:black; stroke-linecap:round; stroke-width:0.25;"/>
<line x1="120.500000" y1="132.000000" x2="173.000000" y2="132.000000"  style="stroke:black; stroke-linecap:round; stroke-width:0.25;"/>
<line x1="153.000000" y1="36.000000" x2="157.000000" y2="36.000000"  style="stroke:black; stroke-linecap:round; stroke-width:0.25;"/>
<line x1="157.000000" y1="36.000000" x2="157.000000" y2="36.000000"  style="stroke:black; stroke-linecap:round; stroke-width:0.25;"/>
<line x1="157.000000" y1="36.000000" x2="161.000000" y2="36.000000"  style="stroke:black; stroke-linecap:round; stroke-width:0.25;"/>
<line x1="169.000000" y1="100.000000" x2="173.000000" y2="100.000000"  style="stroke:black; stroke-linecap:round; stroke-width:0.25;"/>
<line x1="173.000000" y1="100.000000" x2="181.000000" y2="100.000000"  style="stroke:black; stroke-linecap:round; stroke-width:0.25;"/>
<line x1="173.000000" y1="120.000000" x2="181.000000" y2="120.000000"  style="stroke:black; stroke-linecap:round; stroke-width:0.25;"/>
<line x1="173.000000" y1="132.000000" x2="173.000000" y2="120.000000"  style="stroke:black; stroke-linecap:round; stroke-width:0.25;"/>
<line x1="173.000000" y1="132.000000" x2="173.000000" y2="132.000000"  style="stroke:black; stroke-linecap:round; stroke-width:0.25;"/>
<line x1="181.000000" y1="100.000000" x2="181.000000" y2="112.000000"  style="stroke:black; stroke-linecap:round; stroke-width:0.25;"/>
<line x1="181.000000" y1="112.000000" x2="181.000000" y2="112.000000"  style="stroke:black; stroke-linecap:round; stroke-width:0.25;"/>
<line x1="181.000000" y1="112.000000" x2="185.000000" y2="112.000000"  style="stroke:black; stroke-linecap:round; stroke-width:0.25;"/>
<line x1="181.000000" y1="120.000000" x2="185.000000" y2="120.000000"  style="stroke:black; stroke-linecap:round; stroke-width:0.25;"/>
<line x1="185.000000" y1="36.000000" x2="189.000000" y2="36.000000"  style="stroke:black; stroke-linecap:round; stroke-width:0.25;"/>
<line x1="189.000000" y1="36.000000" x2="197.000000" y2="36.000000"  style="stroke:black; stroke-linecap:round; stroke-width:0.25;"/>
<line x1="189.000000" y1="56.000000" x2="197.000000" y2="56.000000"  style="stroke:black; stroke-linecap:round; stroke-width:0.25;"/>
<line x1="189.000000" y1="68.000000" x2="189.000000" y2="56.000000"  style="stroke:black; stroke-linecap:round; stroke-width:0.25;"/>
<line x1="189.000000" y1="68.000000" x2="189.000000" y2="68.000000"  style="stroke:black; stroke-linecap:round; stroke-width:0.25;"/>
<line x1="197.000000" y1="36.000000" x2="197.000000" y2="48.000000"  style="stroke:black; stroke-linecap:round; stroke-width:0.25;"/>
<line x1="197.000000" y1="48.000000" x2="197.000000" y2="48.000000"  style="stroke:black; stroke-linecap:round; stroke-width:0.25;"/>
<line x1="197.000000" y1="48.000000" x2="201.000000" y2="48.000000"  style="stroke:black; stroke-linecap:round; stroke-width:0.25;"/>
<line x1="197.000000" y1="56.000000" x2="201.000000" y2="56.000000"  style="stroke:black; stroke-linecap:round; stroke-width:0.25;"/>
<line x1="209.000000" y1="116.000000" x2="213.000000" y2="116.000000"  style="stroke:black; stroke-linecap:round; stroke-width:0.25;"/>
<line x1="213.000000" y1="116.000000" x2="229.000000" y2="116.000000"  style="stroke:black; stroke-linecap:round; stroke-width:0.25;"/>
<line x1="225.000000" y1="52.000000" x2="229.000000" y2="52.000000"  style="stroke:black; stroke-linecap:round; stroke-width:0.25;"/>
<line x1="229.000000" y1="52.000000" x2="237.000000" y2="52.000000"  style="stroke:black; stroke-linecap:round; stroke-width:0.25;"/>
<line x1="229.000000" y1="88.000000" x2="237.000000" y2="88.000000"  style="stroke:black; stroke-linecap:round; stroke-width:0.25;"/>
<line x1="229.000000" y1="116.000000" x2="229.000000" y2="88.000000"  style="stroke:black; stroke-linecap:round; stroke-width:0.25;"/>
<line x1="229.000000" y1="116.000000" x2="229.000000" y2="116.000000"  style="stroke:black; stroke-linecap:round; stroke-width:0.25;"/>
<line x1="237.000000" y1="52.000000" x2="237.000000" y2="80.000000"  style="stroke:black; stroke-linecap:round; stroke-width:0.25;"/>
<line x1="237.000000" y1="80.000000" x2="237.000000" y2="80.000000"  style="stroke:black; stroke-linecap:round; stroke-width:0.25;"/>
<line x1="237.000000" y1="80.000000" x2="241.000000" y2="80.000000"  style="stroke:black; stroke-linecap:round; stroke-width:0.25;"/>
<line x1="237.000000" y1="88.000000" x2="241.000000" y2="88.000000"  style="stroke:black; stroke-linecap:round; stroke-width:0.25;"/>
<line x1="265.000000" y1="84.000000" x2="269.000000" y2="84.000000"  style="stroke:black; stroke-linecap:round; stroke-width:0.25;"/>
<line x1="269.000000" y1="84.000000" x2="269.000000" y2="84.000000"  style="stroke:black; stroke-linecap:round; stroke-width:0.25;"/>
<line x1="269.000000" y1="84.000000" x2="273.000000" y2="84.000000"  style="stroke:black; stroke-linecap:round; stroke-width:0.25;"/>
<line x1="273.000000" y1="84.000000" x2="277.000000" y2="84.000000"  style="stroke:black; stroke-linecap:round; stroke-width:0.25;"/>
<line x1="277.000000" y1="84.000000" x2="287.000000" y2="84.000000"  style="stroke:black; stroke-linecap:round; stroke-width:0.25;"/>
</svg>
